<svg width="420" height="481" viewBox="0 0 420 481" fill="none" xmlns="http://www.w3.org/2000/svg">
<ellipse cx="180.071" cy="240.03" rx="239.929" ry="240.03" fill="#8F82B8"/>
<path d="M91.6582 183.046C190.024 53.426 122.649 23.0262 76.6626 24.0263C43.6724 38.0359 -31.1844 87.7852 -53.8596 183.046C-83.8498 309.038 -14.8711 406.384 69.1043 453.056C114.091 478.059 201.066 498.062 279.042 459.057C244.052 468.058 179.234 467.482 181.633 405.074C184.032 342.666 208.625 270.057 154.64 246.054C109.652 226.052 76.6639 202.805 91.6582 183.046Z" fill="#443073"/>
<ellipse cx="-11.872" cy="216.027" rx="17.9947" ry="18.0023" fill="#9280BC"/>
<ellipse cx="198.066" cy="234.029" rx="17.9947" ry="18.0023" fill="#443073"/>
<ellipse cx="378.013" cy="225.028" rx="17.9947" ry="9.00113" fill="#443073"/>
<ellipse cx="207.063" cy="33.0038" rx="8.99733" ry="9.00113" fill="#443073"/>
<ellipse cx="45.1112" cy="297.037" rx="20.9938" ry="21.0026" fill="#9280BC"/>
<ellipse cx="129.086" cy="375.047" rx="20.9938" ry="21.0026" fill="#9280BC"/>
<ellipse cx="51.1094" cy="297.037" rx="20.9938" ry="21.0026" fill="#CBC3DF"/>
<ellipse cx="135.085" cy="369.046" rx="20.9938" ry="21.0026" fill="#CBC3DF"/>
<ellipse cx="297.036" cy="147.018" rx="20.9938" ry="21.0026" fill="#443073"/>
<ellipse cx="303.035" cy="141.018" rx="20.9938" ry="21.0026" fill="#CBC3DF"/>
<ellipse rx="26.9937" ry="36.0023" transform="matrix(0.924567 0.381019 -0.380744 0.92468 302.711 355.615)" fill="#443073"/>
<ellipse rx="34.833" ry="46.43" transform="matrix(0.380744 -0.92468 0.924567 0.381019 149.767 97.9064)" fill="#443073"/>
<ellipse rx="26.9937" ry="36.0023" transform="matrix(0.924567 0.381019 -0.380744 0.92468 296.713 343.613)" fill="#CBC3DF"/>
<ellipse rx="34.833" ry="46.43" transform="matrix(0.380744 -0.92468 0.924567 0.381019 134.292 105.648)" fill="#CBC3DF"/>
</svg>
